<svg width="259" height="118" viewBox="0 0 259 118" fill="none" xmlns="http://www.w3.org/2000/svg">
<path d="M0 5C0 2.23858 2.23858 0 5 0H92.5C111.554 0 127 15.4462 127 34.5V34.5C127 53.5538 111.554 69 92.5 69H5C2.23857 69 0 66.7614 0 64V5Z" fill="black"/>
<path d="M17.2063 45.5H22.6555V39.3903L24.8352 36.6381L30.4496 45.5H36.9666L28.8313 33.0163L36.8235 22.9545H30.4055L22.9528 32.4879H22.6555V22.9545H17.2063V45.5ZM58.1057 31.1229C57.5553 25.7287 53.5372 22.6463 48.088 22.6463C42.0773 22.6463 37.3987 26.7745 37.3987 34.2273C37.3987 41.647 41.9672 45.8082 48.088 45.8082C54.2748 45.8082 57.6984 41.603 58.1057 37.6069L52.6015 37.5739C52.2162 39.7425 50.5869 41.0305 48.1981 41.0305C44.9836 41.0305 42.958 38.7077 42.958 34.2273C42.958 29.9229 44.9395 27.424 48.2311 27.424C50.708 27.424 52.3263 28.8661 52.6015 31.1229H58.1057ZM69.5574 45.5C76.4267 45.5 80.687 41.2617 80.687 34.2163C80.687 27.1818 76.4267 22.9545 69.5463 22.9545H61.2239V45.5H69.5574ZM66.6731 40.8544V27.6001H69.2711C73.1461 27.6001 75.2267 29.3615 75.2267 34.2163C75.2267 39.093 73.1461 40.8544 69.3482 40.8544H66.6731ZM85.4729 45.8192C86.9811 45.8192 88.3131 44.5423 88.3351 42.957C88.3131 41.3938 86.9811 40.1278 85.4729 40.1278C83.8877 40.1278 82.5887 41.3938 82.6107 42.957C82.5887 44.5423 83.8877 45.8192 85.4729 45.8192Z" fill="white"/>
<path d="M1.45384 97H4.99041V92.2464L6.73011 90.1229L11.3121 97H15.543L9.26207 87.7624L15.4695 80.2727H11.2305L5.21094 87.6481H4.99041V80.2727H1.45384V97ZM18.032 97H21.5115V84.4545H18.032V97ZM19.7799 82.8374C20.8172 82.8374 21.6666 82.0451 21.6666 81.0732C21.6666 80.1094 20.8172 79.3171 19.7799 79.3171C18.7508 79.3171 17.9014 80.1094 17.9014 81.0732C17.9014 82.0451 18.7508 82.8374 19.7799 82.8374ZM29.967 97.245C33.3075 97.245 35.4066 95.2848 35.57 92.4016H32.2866C32.0824 93.7411 31.2003 94.4925 30.0078 94.4925C28.3825 94.4925 27.3288 93.1286 27.3288 90.7273C27.3288 88.3587 28.3906 87.0028 30.0078 87.0028C31.282 87.0028 32.0987 87.8441 32.2866 89.0938H35.57C35.4229 86.1942 33.2259 84.2912 29.9506 84.2912C26.1445 84.2912 23.7923 86.9293 23.7923 90.7763C23.7923 94.5906 26.1037 97.245 29.967 97.245ZM37.7977 97H41.2771V93.0142L42.2164 91.9442L45.6386 97H49.7142L44.8218 89.886L49.4774 84.4545H45.4834L41.4649 89.2163H41.2771V80.2727H37.7977V97ZM62.1596 101.966C65.7452 101.966 68.2935 100.332 68.2935 97.1225V84.4545H64.8386V86.5618H64.7079C64.2424 85.5408 63.2214 84.2912 61.1223 84.2912C58.3699 84.2912 56.0421 86.4311 56.0421 90.7028C56.0421 94.8764 58.3045 96.8203 61.1305 96.8203C63.1316 96.8203 64.2505 95.8157 64.7079 94.7784H64.8549V97.0735C64.8549 98.7969 63.7523 99.4666 62.2413 99.4666C60.7058 99.4666 59.9299 98.7969 59.644 98.0373L56.426 98.4702C56.8425 100.447 58.7782 101.966 62.1596 101.966ZM62.2331 94.2067C60.5261 94.2067 59.595 92.8509 59.595 90.6864C59.595 88.5547 60.5098 87.06 62.2331 87.06C63.9238 87.06 64.8713 88.4893 64.8713 90.6864C64.8713 92.8999 63.9075 94.2067 62.2331 94.2067ZM76.7306 97.245C80.5368 97.245 82.9054 94.6396 82.9054 90.7763C82.9054 86.8885 80.5368 84.2912 76.7306 84.2912C72.9245 84.2912 70.5559 86.8885 70.5559 90.7763C70.5559 94.6396 72.9245 97.245 76.7306 97.245ZM76.747 94.5497C74.9909 94.5497 74.0925 92.9407 74.0925 90.7518C74.0925 88.5629 74.9909 86.9457 76.747 86.9457C78.4703 86.9457 79.3688 88.5629 79.3688 90.7518C79.3688 92.9407 78.4703 94.5497 76.747 94.5497ZM88.6472 80.2727H85.1678V97H88.6472V80.2727ZM95.0118 97.2369C96.8659 97.2369 98.0665 96.4283 98.6791 95.2603H98.7771V97H102.077V88.5384C102.077 85.549 99.5448 84.2912 96.7515 84.2912C93.7458 84.2912 91.7693 85.7287 91.2874 88.0156L94.5054 88.277C94.7423 87.4439 95.4855 86.8313 96.7352 86.8313C97.9195 86.8313 98.5974 87.4276 98.5974 88.4567V88.5057C98.5974 89.3143 97.7398 89.4205 95.559 89.6328C93.0761 89.8615 90.8463 90.6946 90.8463 93.4961C90.8463 95.979 92.6187 97.2369 95.0118 97.2369ZM96.0083 94.8356C94.9383 94.8356 94.1705 94.3374 94.1705 93.3817C94.1705 92.4016 94.9791 91.9197 96.2043 91.7482C96.9639 91.642 98.2053 91.4624 98.6219 91.1847V92.516C98.6219 93.831 97.5356 94.8356 96.0083 94.8356ZM108.256 89.7472C108.264 88.13 109.228 87.1825 110.632 87.1825C112.029 87.1825 112.87 88.0973 112.862 89.6328V97H116.342V89.0121C116.342 86.0881 114.626 84.2912 112.013 84.2912C110.15 84.2912 108.803 85.206 108.239 86.668H108.092V84.4545H104.776V97H108.256V89.7472ZM124.736 101.966C128.321 101.966 130.87 100.332 130.87 97.1225V84.4545H127.415V86.5618H127.284C126.819 85.5408 125.798 84.2912 123.699 84.2912C120.946 84.2912 118.618 86.4311 118.618 90.7028C118.618 94.8764 120.881 96.8203 123.707 96.8203C125.708 96.8203 126.827 95.8157 127.284 94.7784H127.431V97.0735C127.431 98.7969 126.328 99.4666 124.817 99.4666C123.282 99.4666 122.506 98.7969 122.22 98.0373L119.002 98.4702C119.419 100.447 121.354 101.966 124.736 101.966ZM124.809 94.2067C123.102 94.2067 122.171 92.8509 122.171 90.6864C122.171 88.5547 123.086 87.06 124.809 87.06C126.5 87.06 127.447 88.4893 127.447 90.6864C127.447 92.8999 126.484 94.2067 124.809 94.2067ZM139.027 97H142.457V94.9908H142.613C143.095 96.0362 144.148 97.2042 146.174 97.2042C149.032 97.2042 151.262 94.9418 151.262 90.7436C151.262 86.4311 148.934 84.2912 146.182 84.2912C144.083 84.2912 143.078 85.5408 142.613 86.5618H142.506V80.2727H139.027V97ZM142.433 90.7273C142.433 88.4893 143.38 87.06 145.071 87.06C146.794 87.06 147.709 88.5547 147.709 90.7273C147.709 92.9162 146.778 94.4354 145.071 94.4354C143.397 94.4354 142.433 92.9652 142.433 90.7273ZM159.252 97.245C163.058 97.245 165.427 94.6396 165.427 90.7763C165.427 86.8885 163.058 84.2912 159.252 84.2912C155.446 84.2912 153.077 86.8885 153.077 90.7763C153.077 94.6396 155.446 97.245 159.252 97.245ZM159.268 94.5497C157.512 94.5497 156.614 92.9407 156.614 90.7518C156.614 88.5629 157.512 86.9457 159.268 86.9457C160.992 86.9457 161.89 88.5629 161.89 90.7518C161.89 92.9407 160.992 94.5497 159.268 94.5497ZM167.689 97H171.169V84.4545H167.689V97ZM169.437 82.8374C170.474 82.8374 171.324 82.0451 171.324 81.0732C171.324 80.1094 170.474 79.3171 169.437 79.3171C168.408 79.3171 167.559 80.1094 167.559 81.0732C167.559 82.0451 168.408 82.8374 169.437 82.8374ZM177.435 80.2727H173.956V97H177.435V80.2727ZM185.94 97.245C189.044 97.245 191.134 95.734 191.624 93.4062L188.406 93.1939C188.055 94.1495 187.157 94.6477 185.997 94.6477C184.257 94.6477 183.155 93.4961 183.155 91.6257V91.6175H191.698V90.6619C191.698 86.3984 189.117 84.2912 185.801 84.2912C182.109 84.2912 179.716 86.913 179.716 90.7844C179.716 94.7621 182.077 97.245 185.94 97.245ZM183.155 89.4613C183.228 88.032 184.314 86.8885 185.858 86.8885C187.369 86.8885 188.415 87.9666 188.423 89.4613H183.155ZM193.969 97H197.448V89.9023C197.448 88.3587 198.575 87.2969 200.111 87.2969C200.593 87.2969 201.254 87.3786 201.581 87.4847V84.3974C201.27 84.3239 200.838 84.2749 200.486 84.2749C199.081 84.2749 197.93 85.0916 197.472 86.6435H197.342V84.4545H193.969V97ZM203.38 101.705H206.859V94.9908H206.965C207.447 96.0362 208.501 97.2042 210.526 97.2042C213.385 97.2042 215.615 94.9418 215.615 90.7436C215.615 86.4311 213.287 84.2912 210.535 84.2912C208.435 84.2912 207.431 85.5408 206.965 86.5618H206.81V84.4545H203.38V101.705ZM206.786 90.7273C206.786 88.4893 207.733 87.06 209.424 87.06C211.147 87.06 212.062 88.5547 212.062 90.7273C212.062 92.9162 211.131 94.4354 209.424 94.4354C207.749 94.4354 206.786 92.9652 206.786 90.7273ZM221.414 80.2727H217.934V97H221.414V80.2727ZM227.778 97.2369C229.632 97.2369 230.833 96.4283 231.446 95.2603H231.544V97H234.843V88.5384C234.843 85.549 232.311 84.2912 229.518 84.2912C226.512 84.2912 224.536 85.7287 224.054 88.0156L227.272 88.277C227.509 87.4439 228.252 86.8313 229.502 86.8313C230.686 86.8313 231.364 87.4276 231.364 88.4567V88.5057C231.364 89.3143 230.506 89.4205 228.326 89.6328C225.843 89.8615 223.613 90.6946 223.613 93.4961C223.613 95.979 225.385 97.2369 227.778 97.2369ZM228.775 94.8356C227.705 94.8356 226.937 94.3374 226.937 93.3817C226.937 92.4016 227.746 91.9197 228.971 91.7482C229.73 91.642 230.972 91.4624 231.388 91.1847V92.516C231.388 93.831 230.302 94.8356 228.775 94.8356ZM244.216 84.4545H241.855V81.4489H238.376V84.4545H236.661V87.0682H238.376V93.6023C238.36 96.0607 240.034 97.2777 242.558 97.1715C243.456 97.1388 244.093 96.9592 244.444 96.8448L243.897 94.2557C243.726 94.2884 243.358 94.37 243.031 94.37C242.337 94.37 241.855 94.1087 241.855 93.1449V87.0682H244.216V84.4545ZM252.065 97.245C255.169 97.245 257.259 95.734 257.749 93.4062L254.531 93.1939C254.18 94.1495 253.282 94.6477 252.122 94.6477C250.382 94.6477 249.28 93.4961 249.28 91.6257V91.6175H257.823V90.6619C257.823 86.3984 255.242 84.2912 251.926 84.2912C248.234 84.2912 245.841 86.913 245.841 90.7844C245.841 94.7621 248.202 97.245 252.065 97.245ZM249.28 89.4613C249.353 88.032 250.439 86.8885 251.983 86.8885C253.494 86.8885 254.54 87.9666 254.548 89.4613H249.28ZM3.22159 114.169C4.48438 114.169 5.19531 113.528 5.47869 112.956H5.53835V114H6.99006V108.929C6.99006 106.707 5.24006 106.264 4.02699 106.264C2.64489 106.264 1.37216 106.821 0.875 108.213L2.27202 108.531C2.49077 107.989 3.04759 107.467 4.04688 107.467C5.00639 107.467 5.49858 107.969 5.49858 108.835V108.869C5.49858 109.411 4.94176 109.401 3.5696 109.56C2.12287 109.729 0.641335 110.107 0.641335 111.842C0.641335 113.344 1.76989 114.169 3.22159 114.169ZM3.54474 112.976C2.70455 112.976 2.09801 112.598 2.09801 111.862C2.09801 111.067 2.80398 110.783 3.66406 110.669C4.14631 110.604 5.28977 110.475 5.50355 110.261V111.246C5.50355 112.151 4.78267 112.976 3.54474 112.976ZM10.4565 109.466C10.4565 108.248 11.2022 107.552 12.2363 107.552C13.2456 107.552 13.8571 108.213 13.8571 109.322V114H15.3436V109.143C15.3436 107.254 14.3045 106.264 12.7434 106.264C11.595 106.264 10.8443 106.796 10.4913 107.607H10.3968V106.364H8.96999V114H10.4565V109.466ZM20.1958 114.149C21.5879 114.149 22.1348 113.299 22.4032 112.812H22.5275V114H23.9792V103.818H22.4927V107.602H22.4032C22.1348 107.129 21.6277 106.264 20.2058 106.264C18.3613 106.264 17.0041 107.721 17.0041 110.197C17.0041 112.668 18.3414 114.149 20.1958 114.149ZM20.524 112.881C19.1966 112.881 18.5055 111.713 18.5055 110.182C18.5055 108.665 19.1816 107.527 20.524 107.527C21.8216 107.527 22.5176 108.586 22.5176 110.182C22.5176 111.788 21.8066 112.881 20.524 112.881ZM33.3706 106.364H31.8045V104.534H30.318V106.364H29.1994V107.557H30.318V112.066C30.313 113.453 31.372 114.124 32.5453 114.099C33.0176 114.094 33.3358 114.005 33.5098 113.94L33.2413 112.712C33.1419 112.732 32.9579 112.777 32.7193 112.777C32.237 112.777 31.8045 112.618 31.8045 111.758V107.557H33.3706V106.364ZM36.6655 109.466C36.6655 108.248 37.4361 107.552 38.495 107.552C39.5192 107.552 40.1307 108.203 40.1307 109.322V114H41.6172V109.143C41.6172 107.239 40.5732 106.264 39.0021 106.264C37.8139 106.264 37.098 106.781 36.7401 107.607H36.6456V103.818H35.179V114H36.6655V109.466ZM46.892 114.154C48.5575 114.154 49.7358 113.334 50.0739 112.091L48.6669 111.837C48.3984 112.558 47.7521 112.926 46.907 112.926C45.6342 112.926 44.7791 112.101 44.7393 110.629H50.1683V110.102C50.1683 107.343 48.5178 106.264 46.7876 106.264C44.6598 106.264 43.2578 107.885 43.2578 110.232C43.2578 112.603 44.6399 114.154 46.892 114.154ZM44.7443 109.516C44.804 108.432 45.5895 107.492 46.7976 107.492C47.951 107.492 48.7067 108.347 48.7116 109.516H44.7443ZM51.8176 114H53.3042V109.337C53.3042 108.337 54.0748 107.616 55.1287 107.616C55.437 107.616 55.785 107.671 55.9043 107.706V106.284C55.7551 106.264 55.4618 106.249 55.2729 106.249C54.378 106.249 53.6124 106.756 53.334 107.577H53.2544V106.364H51.8176V114ZM60.2085 114.154C61.8739 114.154 63.0522 113.334 63.3903 112.091L61.9833 111.837C61.7148 112.558 61.0685 112.926 60.2234 112.926C58.9506 112.926 58.0955 112.101 58.0558 110.629H63.4847V110.102C63.4847 107.343 61.8342 106.264 60.104 106.264C57.9762 106.264 56.5742 107.885 56.5742 110.232C56.5742 112.603 57.9563 114.154 60.2085 114.154ZM58.0607 109.516C58.1204 108.432 58.9059 107.492 60.114 107.492C61.2674 107.492 62.0231 108.347 62.0281 109.516H58.0607ZM68.8391 114H70.3256V106.364H68.8391V114ZM69.5898 105.185C70.1019 105.185 70.5295 104.788 70.5295 104.3C70.5295 103.813 70.1019 103.411 69.5898 103.411C69.0728 103.411 68.6502 103.813 68.6502 104.3C68.6502 104.788 69.0728 105.185 69.5898 105.185ZM78.0478 108.228C77.7395 107.04 76.8098 106.264 75.1593 106.264C73.4341 106.264 72.2111 107.174 72.2111 108.526C72.2111 109.61 72.8674 110.331 74.2992 110.649L75.5918 110.933C76.3276 111.097 76.6706 111.425 76.6706 111.902C76.6706 112.494 76.0392 112.956 75.0648 112.956C74.1749 112.956 73.6032 112.573 73.4242 111.822L71.9874 112.041C72.236 113.393 73.3596 114.154 75.0748 114.154C76.9192 114.154 78.1969 113.175 78.1969 111.793C78.1969 110.714 77.5108 110.048 76.1088 109.724L74.8958 109.446C74.0556 109.247 73.6926 108.964 73.6976 108.447C73.6926 107.86 74.329 107.442 75.1742 107.442C76.0989 107.442 76.5265 107.955 76.7005 108.467L78.0478 108.228ZM85.7587 114.169C87.0215 114.169 87.7324 113.528 88.0158 112.956H88.0755V114H89.5272V108.929C89.5272 106.707 87.7772 106.264 86.5641 106.264C85.182 106.264 83.9093 106.821 83.4121 108.213L84.8091 108.531C85.0279 107.989 85.5847 107.467 86.584 107.467C87.5435 107.467 88.0357 107.969 88.0357 108.835V108.869C88.0357 109.411 87.4789 109.401 86.1067 109.56C84.66 109.729 83.1784 110.107 83.1784 111.842C83.1784 113.344 84.307 114.169 85.7587 114.169ZM86.0819 112.976C85.2417 112.976 84.6351 112.598 84.6351 111.862C84.6351 111.067 85.3411 110.783 86.2012 110.669C86.6834 110.604 87.8269 110.475 88.0407 110.261V111.246C88.0407 112.151 87.3198 112.976 86.0819 112.976ZM96.6987 103.818H95.2122V114H96.6987V103.818ZM101.915 114.154C104.068 114.154 105.475 112.578 105.475 110.217C105.475 107.84 104.068 106.264 101.915 106.264C99.7624 106.264 98.3555 107.84 98.3555 110.217C98.3555 112.578 99.7624 114.154 101.915 114.154ZM101.92 112.906C100.513 112.906 99.8569 111.678 99.8569 110.212C99.8569 108.75 100.513 107.507 101.92 107.507C103.317 107.507 103.973 108.75 103.973 110.212C103.973 111.678 103.317 112.906 101.92 112.906ZM110.699 106.364H109.133V104.534H107.646V106.364H106.528V107.557H107.646V112.066C107.641 113.453 108.7 114.124 109.873 114.099C110.346 114.094 110.664 114.005 110.838 113.94L110.569 112.712C110.47 112.732 110.286 112.777 110.047 112.777C109.565 112.777 109.133 112.618 109.133 111.758V107.557H110.699V106.364ZM117.028 114.094C117.569 114.094 118.022 113.652 118.022 113.1C118.022 112.558 117.569 112.111 117.028 112.111C116.481 112.111 116.033 112.558 116.033 113.1C116.033 113.652 116.481 114.094 117.028 114.094ZM120.992 114.094C121.534 114.094 121.987 113.652 121.987 113.1C121.987 112.558 121.534 112.111 120.992 112.111C120.445 112.111 119.998 112.558 119.998 113.1C119.998 113.652 120.445 114.094 120.992 114.094ZM124.957 114.094C125.499 114.094 125.952 113.652 125.952 113.1C125.952 112.558 125.499 112.111 124.957 112.111C124.41 112.111 123.963 112.558 123.963 113.1C123.963 113.652 124.41 114.094 124.957 114.094Z" fill="black"/>
</svg>
