<svg width="284" height="139" viewBox="0 0 284 139" fill="none" xmlns="http://www.w3.org/2000/svg">
<rect width="284" height="138.525" rx="8" fill="white"/>
<path d="M17 22C17 19.2386 19.2386 17 22 17H109.5C128.554 17 144 32.4462 144 51.5V51.5C144 70.5538 128.554 86 109.5 86H22C19.2386 86 17 83.7614 17 81V22Z" fill="black"/>
<path d="M34.2063 62.5H39.6555V56.3903L41.8352 53.6381L47.4496 62.5H53.9666L45.8313 50.0163L53.8235 39.9545H47.4055L39.9528 49.4879H39.6555V39.9545H34.2063V62.5ZM75.1057 48.1229C74.5553 42.7287 70.5372 39.6463 65.088 39.6463C59.0773 39.6463 54.3987 43.7745 54.3987 51.2273C54.3987 58.647 58.9672 62.8082 65.088 62.8082C71.2748 62.8082 74.6984 58.603 75.1057 54.6069L69.6015 54.5739C69.2162 56.7425 67.5869 58.0305 65.1981 58.0305C61.9836 58.0305 59.958 55.7077 59.958 51.2273C59.958 46.9229 61.9395 44.424 65.2311 44.424C67.708 44.424 69.3263 45.8661 69.6015 48.1229H75.1057ZM86.5574 62.5C93.4267 62.5 97.687 58.2617 97.687 51.2163C97.687 44.1818 93.4267 39.9545 86.5463 39.9545H78.2239V62.5H86.5574ZM83.6731 57.8544V44.6001H86.2711C90.1461 44.6001 92.2267 46.3615 92.2267 51.2163C92.2267 56.093 90.1461 57.8544 86.3482 57.8544H83.6731ZM102.473 62.8192C103.981 62.8192 105.313 61.5423 105.335 59.957C105.313 58.3938 103.981 57.1278 102.473 57.1278C100.888 57.1278 99.5887 58.3938 99.6107 59.957C99.5887 61.5423 100.888 62.8192 102.473 62.8192Z" fill="white"/>
<path d="M18.4538 116H21.9904V111.246L23.7301 109.123L28.3121 116H32.543L26.2621 106.762L32.4695 99.2727H28.2305L22.2109 106.648H21.9904V99.2727H18.4538V116ZM35.032 116H38.5115V103.455H35.032V116ZM36.7799 101.837C37.8172 101.837 38.6666 101.045 38.6666 100.073C38.6666 99.1094 37.8172 98.3171 36.7799 98.3171C35.7508 98.3171 34.9014 99.1094 34.9014 100.073C34.9014 101.045 35.7508 101.837 36.7799 101.837ZM46.967 116.245C50.3075 116.245 52.4066 114.285 52.57 111.402H49.2866C49.0824 112.741 48.2003 113.493 47.0078 113.493C45.3825 113.493 44.3288 112.129 44.3288 109.727C44.3288 107.359 45.3906 106.003 47.0078 106.003C48.282 106.003 49.0987 106.844 49.2866 108.094H52.57C52.4229 105.194 50.2259 103.291 46.9506 103.291C43.1445 103.291 40.7923 105.929 40.7923 109.776C40.7923 113.591 43.1037 116.245 46.967 116.245ZM54.7977 116H58.2771V112.014L59.2164 110.944L62.6386 116H66.7142L61.8218 108.886L66.4774 103.455H62.4834L58.4649 108.216H58.2771V99.2727H54.7977V116ZM79.176 116.245C82.5165 116.245 84.6156 114.285 84.7789 111.402H81.4956C81.2914 112.741 80.4093 113.493 79.2168 113.493C77.5914 113.493 76.5378 112.129 76.5378 109.727C76.5378 107.359 77.5996 106.003 79.2168 106.003C80.4909 106.003 81.3077 106.844 81.4956 108.094H84.7789C84.6319 105.194 82.4348 103.291 79.1596 103.291C75.3535 103.291 73.0012 105.929 73.0012 109.776C73.0012 113.591 75.3127 116.245 79.176 116.245ZM92.675 116.245C96.4811 116.245 98.8497 113.64 98.8497 109.776C98.8497 105.888 96.4811 103.291 92.675 103.291C88.8689 103.291 86.5003 105.888 86.5003 109.776C86.5003 113.64 88.8689 116.245 92.675 116.245ZM92.6913 113.55C90.9353 113.55 90.0368 111.941 90.0368 109.752C90.0368 107.563 90.9353 105.946 92.6913 105.946C94.4147 105.946 95.3131 107.563 95.3131 109.752C95.3131 111.941 94.4147 113.55 92.6913 113.55ZM105.735 116.204C107.761 116.204 108.814 115.036 109.296 113.991H109.443V116H112.873V99.2727H109.402V105.562H109.296C108.831 104.541 107.826 103.291 105.727 103.291C102.974 103.291 100.647 105.431 100.647 109.744C100.647 113.942 102.876 116.204 105.735 116.204ZM106.838 113.435C105.131 113.435 104.199 111.916 104.199 109.727C104.199 107.555 105.114 106.06 106.838 106.06C108.528 106.06 109.476 107.489 109.476 109.727C109.476 111.965 108.512 113.435 106.838 113.435ZM121.452 116.245C124.555 116.245 126.646 114.734 127.136 112.406L123.918 112.194C123.567 113.15 122.669 113.648 121.509 113.648C119.769 113.648 118.666 112.496 118.666 110.626V110.618H127.21V109.662C127.21 105.398 124.629 103.291 121.313 103.291C117.621 103.291 115.228 105.913 115.228 109.784C115.228 113.762 117.588 116.245 121.452 116.245ZM118.666 108.461C118.74 107.032 119.826 105.888 121.37 105.888C122.881 105.888 123.926 106.967 123.934 108.461H118.666ZM139.426 116.204C141.452 116.204 142.506 115.036 142.987 113.991H143.134V116H146.565V99.2727H143.094V105.562H142.987C142.522 104.541 141.517 103.291 139.418 103.291C136.666 103.291 134.338 105.431 134.338 109.744C134.338 113.942 136.568 116.204 139.426 116.204ZM140.529 113.435C138.822 113.435 137.891 111.916 137.891 109.727C137.891 107.555 138.806 106.06 140.529 106.06C142.22 106.06 143.167 107.489 143.167 109.727C143.167 111.965 142.203 113.435 140.529 113.435ZM157.471 110.658C157.479 112.341 156.327 113.223 155.078 113.223C153.763 113.223 152.913 112.3 152.905 110.822V103.455H149.426V111.442C149.434 114.375 151.149 116.163 153.673 116.163C155.559 116.163 156.915 115.191 157.479 113.721H157.61V116H160.95V103.455H157.471V110.658ZM163.733 120.705H167.213V113.991H167.319C167.801 115.036 168.854 116.204 170.88 116.204C173.739 116.204 175.968 113.942 175.968 109.744C175.968 105.431 173.641 103.291 170.888 103.291C168.789 103.291 167.784 104.541 167.319 105.562H167.164V103.455H163.733V120.705ZM167.139 109.727C167.139 107.489 168.087 106.06 169.777 106.06C171.501 106.06 172.415 107.555 172.415 109.727C172.415 111.916 171.484 113.435 169.777 113.435C168.103 113.435 167.139 111.965 167.139 109.727ZM181.767 99.2727H178.288V116H181.767V99.2727ZM184.555 116H188.034V103.455H184.555V116ZM186.302 101.837C187.34 101.837 188.189 101.045 188.189 100.073C188.189 99.1094 187.34 98.3171 186.302 98.3171C185.273 98.3171 184.424 99.1094 184.424 100.073C184.424 101.045 185.273 101.837 186.302 101.837ZM196.489 116.245C199.83 116.245 201.929 114.285 202.092 111.402H198.809C198.605 112.741 197.723 113.493 196.53 113.493C194.905 113.493 193.851 112.129 193.851 109.727C193.851 107.359 194.913 106.003 196.53 106.003C197.804 106.003 198.621 106.844 198.809 108.094H202.092C201.945 105.194 199.748 103.291 196.473 103.291C192.667 103.291 190.315 105.929 190.315 109.776C190.315 113.591 192.626 116.245 196.489 116.245ZM207.898 116.237C209.752 116.237 210.952 115.428 211.565 114.26H211.663V116H214.963V107.538C214.963 104.549 212.431 103.291 209.637 103.291C206.632 103.291 204.655 104.729 204.173 107.016L207.391 107.277C207.628 106.444 208.371 105.831 209.621 105.831C210.805 105.831 211.483 106.428 211.483 107.457V107.506C211.483 108.314 210.626 108.42 208.445 108.633C205.962 108.862 203.732 109.695 203.732 112.496C203.732 114.979 205.504 116.237 207.898 116.237ZM208.894 113.836C207.824 113.836 207.056 113.337 207.056 112.382C207.056 111.402 207.865 110.92 209.09 110.748C209.85 110.642 211.091 110.462 211.508 110.185V111.516C211.508 112.831 210.421 113.836 208.894 113.836ZM224.335 103.455H221.974V100.449H218.495V103.455H216.78V106.068H218.495V112.602C218.479 115.061 220.153 116.278 222.677 116.172C223.575 116.139 224.212 115.959 224.564 115.845L224.016 113.256C223.845 113.288 223.477 113.37 223.151 113.37C222.456 113.37 221.974 113.109 221.974 112.145V106.068H224.335V103.455ZM226.601 116H230.081V103.455H226.601V116ZM228.349 101.837C229.387 101.837 230.236 101.045 230.236 100.073C230.236 99.1094 229.387 98.3171 228.349 98.3171C227.32 98.3171 226.471 99.1094 226.471 100.073C226.471 101.045 227.32 101.837 228.349 101.837ZM238.536 116.245C242.342 116.245 244.711 113.64 244.711 109.776C244.711 105.888 242.342 103.291 238.536 103.291C234.73 103.291 232.362 105.888 232.362 109.776C232.362 113.64 234.73 116.245 238.536 116.245ZM238.553 113.55C236.797 113.55 235.898 111.941 235.898 109.752C235.898 107.563 236.797 105.946 238.553 105.946C240.276 105.946 241.174 107.563 241.174 109.752C241.174 111.941 240.276 113.55 238.553 113.55ZM250.453 108.747C250.461 107.13 251.425 106.183 252.83 106.183C254.226 106.183 255.068 107.097 255.059 108.633V116H258.539V108.012C258.539 105.088 256.824 103.291 254.21 103.291C252.348 103.291 251 104.206 250.437 105.668H250.29V103.455H246.973V116H250.453V108.747ZM263.315 116.212C264.36 116.212 265.267 115.338 265.275 114.252C265.267 113.182 264.36 112.308 263.315 112.308C262.237 112.308 261.346 113.182 261.355 114.252C261.346 115.338 262.237 116.212 263.315 116.212Z" fill="black"/>
</svg>
