<svg width="940" height="214" viewBox="0 0 940 214" fill="none" xmlns="http://www.w3.org/2000/svg">
<rect width="940" height="214" fill="white"/>
<path d="M340 53C340 50.2386 342.239 48 345 48H432.5C451.554 48 467 63.4462 467 82.5V82.5C467 101.554 451.554 117 432.5 117H345C342.239 117 340 114.761 340 112V53Z" fill="black"/>
<path d="M357.206 93.5H362.656V87.3903L364.835 84.6381L370.45 93.5H376.967L368.831 81.0163L376.824 70.9545H370.406L362.953 80.4879H362.656V70.9545H357.206V93.5ZM398.106 79.1229C397.555 73.7287 393.537 70.6463 388.088 70.6463C382.077 70.6463 377.399 74.7745 377.399 82.2273C377.399 89.647 381.967 93.8082 388.088 93.8082C394.275 93.8082 397.698 89.603 398.106 85.6069L392.601 85.5739C392.216 87.7425 390.587 89.0305 388.198 89.0305C384.984 89.0305 382.958 86.7077 382.958 82.2273C382.958 77.9229 384.94 75.424 388.231 75.424C390.708 75.424 392.326 76.8661 392.601 79.1229H398.106ZM409.557 93.5C416.427 93.5 420.687 89.2617 420.687 82.2163C420.687 75.1818 416.427 70.9545 409.546 70.9545H401.224V93.5H409.557ZM406.673 88.8544V75.6001H409.271C413.146 75.6001 415.227 77.3615 415.227 82.2163C415.227 87.093 413.146 88.8544 409.348 88.8544H406.673ZM425.473 93.8192C426.981 93.8192 428.313 92.5423 428.335 90.957C428.313 89.3938 426.981 88.1278 425.473 88.1278C423.888 88.1278 422.589 89.3938 422.611 90.957C422.589 92.5423 423.888 93.8192 425.473 93.8192Z" fill="white"/>
<path d="M341.454 145H344.99V140.246L346.73 138.123L351.312 145H355.543L349.262 135.762L355.469 128.273H351.23L345.211 135.648H344.99V128.273H341.454V145ZM358.032 145H361.511V132.455H358.032V145ZM359.78 130.837C360.817 130.837 361.667 130.045 361.667 129.073C361.667 128.109 360.817 127.317 359.78 127.317C358.751 127.317 357.901 128.109 357.901 129.073C357.901 130.045 358.751 130.837 359.78 130.837ZM369.967 145.245C373.308 145.245 375.407 143.285 375.57 140.402H372.287C372.082 141.741 371.2 142.493 370.008 142.493C368.382 142.493 367.329 141.129 367.329 138.727C367.329 136.359 368.391 135.003 370.008 135.003C371.282 135.003 372.099 135.844 372.287 137.094H375.57C375.423 134.194 373.226 132.291 369.951 132.291C366.145 132.291 363.792 134.929 363.792 138.776C363.792 142.591 366.104 145.245 369.967 145.245ZM377.798 145H381.277V141.014L382.216 139.944L385.639 145H389.714L384.822 137.886L389.477 132.455H385.483L381.465 137.216H381.277V128.273H377.798V145ZM402.16 149.966C405.745 149.966 408.294 148.332 408.294 145.123V132.455H404.839V134.562H404.708C404.242 133.541 403.221 132.291 401.122 132.291C398.37 132.291 396.042 134.431 396.042 138.703C396.042 142.876 398.305 144.82 401.131 144.82C403.132 144.82 404.251 143.816 404.708 142.778H404.855V145.074C404.855 146.797 403.752 147.467 402.241 147.467C400.706 147.467 399.93 146.797 399.644 146.037L396.426 146.47C396.843 148.447 398.778 149.966 402.16 149.966ZM402.233 142.207C400.526 142.207 399.595 140.851 399.595 138.686C399.595 136.555 400.51 135.06 402.233 135.06C403.924 135.06 404.871 136.489 404.871 138.686C404.871 140.9 403.907 142.207 402.233 142.207ZM416.731 145.245C420.537 145.245 422.905 142.64 422.905 138.776C422.905 134.888 420.537 132.291 416.731 132.291C412.925 132.291 410.556 134.888 410.556 138.776C410.556 142.64 412.925 145.245 416.731 145.245ZM416.747 142.55C414.991 142.55 414.093 140.941 414.093 138.752C414.093 136.563 414.991 134.946 416.747 134.946C418.47 134.946 419.369 136.563 419.369 138.752C419.369 140.941 418.47 142.55 416.747 142.55ZM428.647 128.273H425.168V145H428.647V128.273ZM435.012 145.237C436.866 145.237 438.066 144.428 438.679 143.26H438.777V145H442.077V136.538C442.077 133.549 439.545 132.291 436.752 132.291C433.746 132.291 431.769 133.729 431.287 136.016L434.505 136.277C434.742 135.444 435.486 134.831 436.735 134.831C437.919 134.831 438.597 135.428 438.597 136.457V136.506C438.597 137.314 437.74 137.42 435.559 137.633C433.076 137.862 430.846 138.695 430.846 141.496C430.846 143.979 432.619 145.237 435.012 145.237ZM436.008 142.836C434.938 142.836 434.171 142.337 434.171 141.382C434.171 140.402 434.979 139.92 436.204 139.748C436.964 139.642 438.205 139.462 438.622 139.185V140.516C438.622 141.831 437.536 142.836 436.008 142.836ZM448.256 137.747C448.264 136.13 449.228 135.183 450.632 135.183C452.029 135.183 452.87 136.097 452.862 137.633V145H456.342V137.012C456.342 134.088 454.626 132.291 452.013 132.291C450.15 132.291 448.803 133.206 448.239 134.668H448.092V132.455H444.776V145H448.256V137.747ZM464.736 149.966C468.321 149.966 470.87 148.332 470.87 145.123V132.455H467.415V134.562H467.284C466.819 133.541 465.798 132.291 463.699 132.291C460.946 132.291 458.618 134.431 458.618 138.703C458.618 142.876 460.881 144.82 463.707 144.82C465.708 144.82 466.827 143.816 467.284 142.778H467.431V145.074C467.431 146.797 466.328 147.467 464.817 147.467C463.282 147.467 462.506 146.797 462.22 146.037L459.002 146.47C459.419 148.447 461.354 149.966 464.736 149.966ZM464.809 142.207C463.102 142.207 462.171 140.851 462.171 138.686C462.171 136.555 463.086 135.06 464.809 135.06C466.5 135.06 467.447 136.489 467.447 138.686C467.447 140.9 466.484 142.207 464.809 142.207ZM479.027 145H482.457V142.991H482.613C483.095 144.036 484.148 145.204 486.174 145.204C489.032 145.204 491.262 142.942 491.262 138.744C491.262 134.431 488.934 132.291 486.182 132.291C484.083 132.291 483.078 133.541 482.613 134.562H482.506V128.273H479.027V145ZM482.433 138.727C482.433 136.489 483.38 135.06 485.071 135.06C486.794 135.06 487.709 136.555 487.709 138.727C487.709 140.916 486.778 142.435 485.071 142.435C483.397 142.435 482.433 140.965 482.433 138.727ZM499.252 145.245C503.058 145.245 505.427 142.64 505.427 138.776C505.427 134.888 503.058 132.291 499.252 132.291C495.446 132.291 493.077 134.888 493.077 138.776C493.077 142.64 495.446 145.245 499.252 145.245ZM499.268 142.55C497.512 142.55 496.614 140.941 496.614 138.752C496.614 136.563 497.512 134.946 499.268 134.946C500.992 134.946 501.89 136.563 501.89 138.752C501.89 140.941 500.992 142.55 499.268 142.55ZM507.689 145H511.169V132.455H507.689V145ZM509.437 130.837C510.474 130.837 511.324 130.045 511.324 129.073C511.324 128.109 510.474 127.317 509.437 127.317C508.408 127.317 507.559 128.109 507.559 129.073C507.559 130.045 508.408 130.837 509.437 130.837ZM517.435 128.273H513.956V145H517.435V128.273ZM525.94 145.245C529.044 145.245 531.134 143.734 531.624 141.406L528.406 141.194C528.055 142.15 527.157 142.648 525.997 142.648C524.257 142.648 523.155 141.496 523.155 139.626V139.618H531.698V138.662C531.698 134.398 529.117 132.291 525.801 132.291C522.109 132.291 519.716 134.913 519.716 138.784C519.716 142.762 522.077 145.245 525.94 145.245ZM523.155 137.461C523.228 136.032 524.314 134.888 525.858 134.888C527.369 134.888 528.415 135.967 528.423 137.461H523.155ZM533.969 145H537.448V137.902C537.448 136.359 538.575 135.297 540.111 135.297C540.593 135.297 541.254 135.379 541.581 135.485V132.397C541.27 132.324 540.838 132.275 540.486 132.275C539.081 132.275 537.93 133.092 537.472 134.643H537.342V132.455H533.969V145ZM543.38 149.705H546.859V142.991H546.965C547.447 144.036 548.501 145.204 550.526 145.204C553.385 145.204 555.615 142.942 555.615 138.744C555.615 134.431 553.287 132.291 550.535 132.291C548.435 132.291 547.431 133.541 546.965 134.562H546.81V132.455H543.38V149.705ZM546.786 138.727C546.786 136.489 547.733 135.06 549.424 135.06C551.147 135.06 552.062 136.555 552.062 138.727C552.062 140.916 551.131 142.435 549.424 142.435C547.749 142.435 546.786 140.965 546.786 138.727ZM561.414 128.273H557.934V145H561.414V128.273ZM567.778 145.237C569.632 145.237 570.833 144.428 571.446 143.26H571.544V145H574.843V136.538C574.843 133.549 572.311 132.291 569.518 132.291C566.512 132.291 564.536 133.729 564.054 136.016L567.272 136.277C567.509 135.444 568.252 134.831 569.502 134.831C570.686 134.831 571.364 135.428 571.364 136.457V136.506C571.364 137.314 570.506 137.42 568.326 137.633C565.843 137.862 563.613 138.695 563.613 141.496C563.613 143.979 565.385 145.237 567.778 145.237ZM568.775 142.836C567.705 142.836 566.937 142.337 566.937 141.382C566.937 140.402 567.746 139.92 568.971 139.748C569.73 139.642 570.972 139.462 571.388 139.185V140.516C571.388 141.831 570.302 142.836 568.775 142.836ZM584.216 132.455H581.855V129.449H578.376V132.455H576.661V135.068H578.376V141.602C578.36 144.061 580.034 145.278 582.558 145.172C583.456 145.139 584.093 144.959 584.444 144.845L583.897 142.256C583.726 142.288 583.358 142.37 583.031 142.37C582.337 142.37 581.855 142.109 581.855 141.145V135.068H584.216V132.455ZM592.065 145.245C595.169 145.245 597.259 143.734 597.749 141.406L594.531 141.194C594.18 142.15 593.282 142.648 592.122 142.648C590.382 142.648 589.28 141.496 589.28 139.626V139.618H597.823V138.662C597.823 134.398 595.242 132.291 591.926 132.291C588.234 132.291 585.841 134.913 585.841 138.784C585.841 142.762 588.202 145.245 592.065 145.245ZM589.28 137.461C589.353 136.032 590.439 134.888 591.983 134.888C593.494 134.888 594.54 135.967 594.548 137.461H589.28ZM341.119 151.818V162H342.58V154.627H342.675L345.678 161.985H346.891L349.893 154.632H349.988V162H351.45V151.818H349.585L346.344 159.733H346.224L342.983 151.818H341.119ZM355.786 162.169C357.049 162.169 357.76 161.528 358.043 160.956H358.103V162H359.555V156.929C359.555 154.707 357.805 154.264 356.591 154.264C355.209 154.264 353.937 154.821 353.439 156.213L354.836 156.531C355.055 155.989 355.612 155.467 356.611 155.467C357.571 155.467 358.063 155.969 358.063 156.835V156.869C358.063 157.411 357.506 157.401 356.134 157.56C354.687 157.729 353.206 158.107 353.206 159.842C353.206 161.344 354.334 162.169 355.786 162.169ZM356.109 160.976C355.269 160.976 354.662 160.598 354.662 159.862C354.662 159.067 355.368 158.783 356.229 158.669C356.711 158.604 357.854 158.475 358.068 158.261V159.246C358.068 160.151 357.347 160.976 356.109 160.976ZM362.201 164.864C363.429 164.864 364.204 164.222 364.647 163.019L367.804 154.379L366.198 154.364L364.264 160.29H364.184L362.25 154.364H360.659L363.453 162.099L363.27 162.607C362.892 163.621 362.36 163.705 361.544 163.482L361.186 164.7C361.365 164.779 361.753 164.864 362.201 164.864ZM376.126 162.154C377.931 162.154 379.099 161.07 379.263 159.584H377.816C377.627 160.409 376.986 160.896 376.136 160.896C374.878 160.896 374.068 159.847 374.068 158.182C374.068 156.546 374.893 155.517 376.136 155.517C377.081 155.517 377.657 156.114 377.816 156.83H379.263C379.104 155.288 377.846 154.264 376.111 154.264C373.958 154.264 372.566 155.885 372.566 158.217C372.566 160.518 373.909 162.154 376.126 162.154ZM382.339 157.466C382.339 156.248 383.11 155.552 384.169 155.552C385.193 155.552 385.805 156.203 385.805 157.322V162H387.291V157.143C387.291 155.239 386.247 154.264 384.676 154.264C383.488 154.264 382.772 154.781 382.414 155.607H382.319V151.818H380.853V162H382.339V157.466ZM391.497 162.169C392.76 162.169 393.471 161.528 393.754 160.956H393.814V162H395.265V156.929C395.265 154.707 393.515 154.264 392.302 154.264C390.92 154.264 389.648 154.821 389.15 156.213L390.547 156.531C390.766 155.989 391.323 155.467 392.322 155.467C393.282 155.467 393.774 155.969 393.774 156.835V156.869C393.774 157.411 393.217 157.401 391.845 157.56C390.398 157.729 388.917 158.107 388.917 159.842C388.917 161.344 390.045 162.169 391.497 162.169ZM391.82 160.976C390.98 160.976 390.373 160.598 390.373 159.862C390.373 159.067 391.079 158.783 391.939 158.669C392.422 158.604 393.565 158.475 393.779 158.261V159.246C393.779 160.151 393.058 160.976 391.82 160.976ZM398.732 157.466C398.732 156.248 399.478 155.552 400.512 155.552C401.521 155.552 402.132 156.213 402.132 157.322V162H403.619V157.143C403.619 155.254 402.58 154.264 401.019 154.264C399.87 154.264 399.12 154.796 398.767 155.607H398.672V154.364H397.245V162H398.732V157.466ZM408.814 165.023C410.758 165.023 412.26 164.133 412.26 162.169V154.364H410.803V155.602H410.694C410.43 155.129 409.903 154.264 408.481 154.264C406.637 154.264 405.279 155.721 405.279 158.152C405.279 160.588 406.667 161.886 408.471 161.886C409.873 161.886 410.415 161.095 410.684 160.608H410.778V162.109C410.778 163.308 409.958 163.825 408.829 163.825C407.591 163.825 407.109 163.203 406.846 162.766L405.568 163.293C405.971 164.227 406.99 165.023 408.814 165.023ZM408.799 160.653C407.472 160.653 406.781 159.634 406.781 158.132C406.781 156.665 407.457 155.527 408.799 155.527C410.097 155.527 410.793 156.586 410.793 158.132C410.793 159.708 410.082 160.653 408.799 160.653ZM417.544 162.154C419.21 162.154 420.388 161.334 420.726 160.091L419.319 159.837C419.051 160.558 418.404 160.926 417.559 160.926C416.287 160.926 415.431 160.101 415.392 158.629H420.821V158.102C420.821 155.343 419.17 154.264 417.44 154.264C415.312 154.264 413.91 155.885 413.91 158.232C413.91 160.603 415.292 162.154 417.544 162.154ZM415.397 157.516C415.456 156.432 416.242 155.492 417.45 155.492C418.603 155.492 419.359 156.347 419.364 157.516H415.397ZM427.115 164.864C428.343 164.864 429.118 164.222 429.561 163.019L432.718 154.379L431.112 154.364L429.178 160.29H429.098L427.164 154.364H425.574L428.368 162.099L428.184 162.607C427.806 163.621 427.274 163.705 426.458 163.482L426.1 164.7C426.279 164.779 426.667 164.864 427.115 164.864ZM437.062 162.154C439.214 162.154 440.621 160.578 440.621 158.217C440.621 155.84 439.214 154.264 437.062 154.264C434.909 154.264 433.502 155.84 433.502 158.217C433.502 160.578 434.909 162.154 437.062 162.154ZM437.067 160.906C435.66 160.906 435.003 159.678 435.003 158.212C435.003 156.75 435.66 155.507 437.067 155.507C438.464 155.507 439.12 156.75 439.12 158.212C439.12 159.678 438.464 160.906 437.067 160.906ZM447.118 158.833C447.123 160.131 446.158 160.747 445.323 160.747C444.403 160.747 443.767 160.081 443.767 159.042V154.364H442.281V159.221C442.281 161.115 443.32 162.099 444.786 162.099C445.935 162.099 446.715 161.493 447.068 160.678H447.148V162H448.609V154.364H447.118V158.833ZM450.607 162H452.093V157.337C452.093 156.337 452.864 155.616 453.918 155.616C454.226 155.616 454.574 155.671 454.693 155.706V154.284C454.544 154.264 454.251 154.249 454.062 154.249C453.167 154.249 452.401 154.756 452.123 155.577H452.044V154.364H450.607V162ZM462.901 162.154C464.706 162.154 465.874 161.07 466.039 159.584H464.592C464.403 160.409 463.762 160.896 462.911 160.896C461.654 160.896 460.843 159.847 460.843 158.182C460.843 156.546 461.669 155.517 462.911 155.517C463.856 155.517 464.433 156.114 464.592 156.83H466.039C465.879 155.288 464.622 154.264 462.887 154.264C460.734 154.264 459.342 155.885 459.342 158.217C459.342 160.518 460.684 162.154 462.901 162.154ZM470.845 162.154C472.998 162.154 474.404 160.578 474.404 158.217C474.404 155.84 472.998 154.264 470.845 154.264C468.692 154.264 467.285 155.84 467.285 158.217C467.285 160.578 468.692 162.154 470.845 162.154ZM470.85 160.906C469.443 160.906 468.787 159.678 468.787 158.212C468.787 156.75 469.443 155.507 470.85 155.507C472.247 155.507 472.903 156.75 472.903 158.212C472.903 159.678 472.247 160.906 470.85 160.906ZM478.922 162.149C480.314 162.149 480.861 161.299 481.13 160.812H481.254V162H482.706V151.818H481.219V155.602H481.13C480.861 155.129 480.354 154.264 478.932 154.264C477.088 154.264 475.731 155.721 475.731 158.197C475.731 160.668 477.068 162.149 478.922 162.149ZM479.251 160.881C477.923 160.881 477.232 159.713 477.232 158.182C477.232 156.665 477.908 155.527 479.251 155.527C480.548 155.527 481.244 156.586 481.244 158.182C481.244 159.788 480.533 160.881 479.251 160.881ZM488.119 162.154C489.784 162.154 490.962 161.334 491.3 160.091L489.893 159.837C489.625 160.558 488.979 160.926 488.134 160.926C486.861 160.926 486.006 160.101 485.966 158.629H491.395V158.102C491.395 155.343 489.744 154.264 488.014 154.264C485.886 154.264 484.484 155.885 484.484 158.232C484.484 160.603 485.866 162.154 488.119 162.154ZM485.971 157.516C486.031 156.432 486.816 155.492 488.024 155.492C489.178 155.492 489.933 156.347 489.938 157.516H485.971ZM498.972 162.169C500.234 162.169 500.945 161.528 501.229 160.956H501.288V162H502.74V156.929C502.74 154.707 500.99 154.264 499.777 154.264C498.395 154.264 497.122 154.821 496.625 156.213L498.022 156.531C498.241 155.989 498.798 155.467 499.797 155.467C500.756 155.467 501.249 155.969 501.249 156.835V156.869C501.249 157.411 500.692 157.401 499.32 157.56C497.873 157.729 496.391 158.107 496.391 159.842C496.391 161.344 497.52 162.169 498.972 162.169ZM499.295 160.976C498.455 160.976 497.848 160.598 497.848 159.862C497.848 159.067 498.554 158.783 499.414 158.669C499.896 158.604 501.04 158.475 501.254 158.261V159.246C501.254 160.151 500.533 160.976 499.295 160.976ZM508.544 162H509.996V160.812H510.12C510.389 161.299 510.936 162.149 512.328 162.149C514.177 162.149 515.52 160.668 515.52 158.197C515.52 155.721 514.157 154.264 512.313 154.264C510.896 154.264 510.384 155.129 510.12 155.602H510.031V151.818H508.544V162ZM510.001 158.182C510.001 156.586 510.697 155.527 511.995 155.527C513.342 155.527 514.018 156.665 514.018 158.182C514.018 159.713 513.322 160.881 511.995 160.881C510.717 160.881 510.001 159.788 510.001 158.182ZM517.189 162H518.675V154.364H517.189V162ZM517.939 153.185C518.452 153.185 518.879 152.788 518.879 152.3C518.879 151.813 518.452 151.411 517.939 151.411C517.422 151.411 517 151.813 517 152.3C517 152.788 517.422 153.185 517.939 153.185ZM524.24 154.364H522.674V152.534H521.187V154.364H520.069V155.557H521.187V160.066C521.182 161.453 522.241 162.124 523.414 162.099C523.887 162.094 524.205 162.005 524.379 161.94L524.11 160.712C524.011 160.732 523.827 160.777 523.588 160.777C523.106 160.777 522.674 160.618 522.674 159.758V155.557H524.24V154.364ZM526.863 162.094C527.405 162.094 527.858 161.652 527.858 161.1C527.858 160.558 527.405 160.111 526.863 160.111C526.317 160.111 525.869 160.558 525.869 161.1C525.869 161.652 526.317 162.094 526.863 162.094Z" fill="black"/>
</svg>
