<svg width="294" height="156" viewBox="0 0 294 156" fill="none" xmlns="http://www.w3.org/2000/svg">
<rect width="294" height="156" fill="white"/>
<path d="M17 24C17 21.2386 19.2386 19 22 19H109.5C128.554 19 144 34.4462 144 53.5V53.5C144 72.5538 128.554 88 109.5 88H22C19.2386 88 17 85.7614 17 83V24Z" fill="black"/>
<path d="M34.2063 64.5H39.6555V58.3903L41.8352 55.6381L47.4496 64.5H53.9666L45.8313 52.0163L53.8235 41.9545H47.4055L39.9528 51.4879H39.6555V41.9545H34.2063V64.5ZM75.1057 50.1229C74.5553 44.7287 70.5372 41.6463 65.088 41.6463C59.0773 41.6463 54.3987 45.7745 54.3987 53.2273C54.3987 60.647 58.9672 64.8082 65.088 64.8082C71.2748 64.8082 74.6984 60.603 75.1057 56.6069L69.6015 56.5739C69.2162 58.7425 67.5869 60.0305 65.1981 60.0305C61.9836 60.0305 59.958 57.7077 59.958 53.2273C59.958 48.9229 61.9395 46.424 65.2311 46.424C67.708 46.424 69.3263 47.8661 69.6015 50.1229H75.1057ZM86.5574 64.5C93.4267 64.5 97.687 60.2617 97.687 53.2163C97.687 46.1818 93.4267 41.9545 86.5463 41.9545H78.2239V64.5H86.5574ZM83.6731 59.8544V46.6001H86.2711C90.1461 46.6001 92.2267 48.3615 92.2267 53.2163C92.2267 58.093 90.1461 59.8544 86.3482 59.8544H83.6731ZM102.473 64.8192C103.981 64.8192 105.313 63.5423 105.335 61.957C105.313 60.3938 103.981 59.1278 102.473 59.1278C100.888 59.1278 99.5887 60.3938 99.6107 61.957C99.5887 63.5423 100.888 64.8192 102.473 64.8192Z" fill="white"/>
<path d="M18.4538 116H21.9904V111.246L23.7301 109.123L28.3121 116H32.543L26.2621 106.762L32.4695 99.2727H28.2305L22.2109 106.648H21.9904V99.2727H18.4538V116ZM35.032 116H38.5115V103.455H35.032V116ZM36.7799 101.837C37.8172 101.837 38.6666 101.045 38.6666 100.073C38.6666 99.1094 37.8172 98.3171 36.7799 98.3171C35.7508 98.3171 34.9014 99.1094 34.9014 100.073C34.9014 101.045 35.7508 101.837 36.7799 101.837ZM46.967 116.245C50.3075 116.245 52.4066 114.285 52.57 111.402H49.2866C49.0824 112.741 48.2003 113.493 47.0078 113.493C45.3825 113.493 44.3288 112.129 44.3288 109.727C44.3288 107.359 45.3906 106.003 47.0078 106.003C48.282 106.003 49.0987 106.844 49.2866 108.094H52.57C52.4229 105.194 50.2259 103.291 46.9506 103.291C43.1445 103.291 40.7923 105.929 40.7923 109.776C40.7923 113.591 43.1037 116.245 46.967 116.245ZM54.7977 116H58.2771V112.014L59.2164 110.944L62.6386 116H66.7142L61.8218 108.886L66.4774 103.455H62.4834L58.4649 108.216H58.2771V99.2727H54.7977V116ZM79.1596 120.966C82.7452 120.966 85.2935 119.332 85.2935 116.123V103.455H81.8386V105.562H81.7079C81.2424 104.541 80.2214 103.291 78.1223 103.291C75.3699 103.291 73.0421 105.431 73.0421 109.703C73.0421 113.876 75.3045 115.82 78.1305 115.82C80.1316 115.82 81.2505 114.816 81.7079 113.778H81.8549V116.074C81.8549 117.797 80.7523 118.467 79.2413 118.467C77.7058 118.467 76.9299 117.797 76.644 117.037L73.426 117.47C73.8425 119.447 75.7782 120.966 79.1596 120.966ZM79.2331 113.207C77.5261 113.207 76.595 111.851 76.595 109.686C76.595 107.555 77.5098 106.06 79.2331 106.06C80.9238 106.06 81.8713 107.489 81.8713 109.686C81.8713 111.9 80.9075 113.207 79.2331 113.207ZM93.7306 116.245C97.5368 116.245 99.9054 113.64 99.9054 109.776C99.9054 105.888 97.5368 103.291 93.7306 103.291C89.9245 103.291 87.5559 105.888 87.5559 109.776C87.5559 113.64 89.9245 116.245 93.7306 116.245ZM93.747 113.55C91.9909 113.55 91.0925 111.941 91.0925 109.752C91.0925 107.563 91.9909 105.946 93.747 105.946C95.4703 105.946 96.3688 107.563 96.3688 109.752C96.3688 111.941 95.4703 113.55 93.747 113.55ZM105.647 99.2727H102.168V116H105.647V99.2727ZM112.012 116.237C113.866 116.237 115.066 115.428 115.679 114.26H115.777V116H119.077V107.538C119.077 104.549 116.545 103.291 113.752 103.291C110.746 103.291 108.769 104.729 108.287 107.016L111.505 107.277C111.742 106.444 112.486 105.831 113.735 105.831C114.919 105.831 115.597 106.428 115.597 107.457V107.506C115.597 108.314 114.74 108.42 112.559 108.633C110.076 108.862 107.846 109.695 107.846 112.496C107.846 114.979 109.619 116.237 112.012 116.237ZM113.008 113.836C111.938 113.836 111.171 113.337 111.171 112.382C111.171 111.402 111.979 110.92 113.204 110.748C113.964 110.642 115.205 110.462 115.622 110.185V111.516C115.622 112.831 114.536 113.836 113.008 113.836ZM125.256 108.747C125.264 107.13 126.228 106.183 127.632 106.183C129.029 106.183 129.87 107.097 129.862 108.633V116H133.342V108.012C133.342 105.088 131.626 103.291 129.013 103.291C127.15 103.291 125.803 104.206 125.239 105.668H125.092V103.455H121.776V116H125.256V108.747ZM141.736 120.966C145.321 120.966 147.87 119.332 147.87 116.123V103.455H144.415V105.562H144.284C143.819 104.541 142.798 103.291 140.699 103.291C137.946 103.291 135.618 105.431 135.618 109.703C135.618 113.876 137.881 115.82 140.707 115.82C142.708 115.82 143.827 114.816 144.284 113.778H144.431V116.074C144.431 117.797 143.328 118.467 141.817 118.467C140.282 118.467 139.506 117.797 139.22 117.037L136.002 117.47C136.419 119.447 138.354 120.966 141.736 120.966ZM141.809 113.207C140.102 113.207 139.171 111.851 139.171 109.686C139.171 107.555 140.086 106.06 141.809 106.06C143.5 106.06 144.447 107.489 144.447 109.686C144.447 111.9 143.484 113.207 141.809 113.207ZM156.027 116H159.457V113.991H159.613C160.095 115.036 161.148 116.204 163.174 116.204C166.032 116.204 168.262 113.942 168.262 109.744C168.262 105.431 165.934 103.291 163.182 103.291C161.083 103.291 160.078 104.541 159.613 105.562H159.506V99.2727H156.027V116ZM159.433 109.727C159.433 107.489 160.38 106.06 162.071 106.06C163.794 106.06 164.709 107.555 164.709 109.727C164.709 111.916 163.778 113.435 162.071 113.435C160.397 113.435 159.433 111.965 159.433 109.727ZM176.252 116.245C180.058 116.245 182.427 113.64 182.427 109.776C182.427 105.888 180.058 103.291 176.252 103.291C172.446 103.291 170.077 105.888 170.077 109.776C170.077 113.64 172.446 116.245 176.252 116.245ZM176.268 113.55C174.512 113.55 173.614 111.941 173.614 109.752C173.614 107.563 174.512 105.946 176.268 105.946C177.992 105.946 178.89 107.563 178.89 109.752C178.89 111.941 177.992 113.55 176.268 113.55ZM184.689 116H188.169V103.455H184.689V116ZM186.437 101.837C187.474 101.837 188.324 101.045 188.324 100.073C188.324 99.1094 187.474 98.3171 186.437 98.3171C185.408 98.3171 184.559 99.1094 184.559 100.073C184.559 101.045 185.408 101.837 186.437 101.837ZM194.435 99.2727H190.956V116H194.435V99.2727ZM202.94 116.245C206.044 116.245 208.134 114.734 208.624 112.406L205.406 112.194C205.055 113.15 204.157 113.648 202.997 113.648C201.257 113.648 200.155 112.496 200.155 110.626V110.618H208.698V109.662C208.698 105.398 206.117 103.291 202.801 103.291C199.109 103.291 196.716 105.913 196.716 109.784C196.716 113.762 199.077 116.245 202.94 116.245ZM200.155 108.461C200.228 107.032 201.314 105.888 202.858 105.888C204.369 105.888 205.415 106.967 205.423 108.461H200.155ZM210.969 116H214.448V108.902C214.448 107.359 215.575 106.297 217.111 106.297C217.593 106.297 218.254 106.379 218.581 106.485V103.397C218.27 103.324 217.838 103.275 217.486 103.275C216.081 103.275 214.93 104.092 214.472 105.643H214.342V103.455H210.969V116ZM220.38 120.705H223.859V113.991H223.965C224.447 115.036 225.501 116.204 227.526 116.204C230.385 116.204 232.615 113.942 232.615 109.744C232.615 105.431 230.287 103.291 227.535 103.291C225.435 103.291 224.431 104.541 223.965 105.562H223.81V103.455H220.38V120.705ZM223.786 109.727C223.786 107.489 224.733 106.06 226.424 106.06C228.147 106.06 229.062 107.555 229.062 109.727C229.062 111.916 228.131 113.435 226.424 113.435C224.749 113.435 223.786 111.965 223.786 109.727ZM238.414 99.2727H234.934V116H238.414V99.2727ZM244.778 116.237C246.632 116.237 247.833 115.428 248.446 114.26H248.544V116H251.843V107.538C251.843 104.549 249.311 103.291 246.518 103.291C243.512 103.291 241.536 104.729 241.054 107.016L244.272 107.277C244.509 106.444 245.252 105.831 246.502 105.831C247.686 105.831 248.364 106.428 248.364 107.457V107.506C248.364 108.314 247.506 108.42 245.326 108.633C242.843 108.862 240.613 109.695 240.613 112.496C240.613 114.979 242.385 116.237 244.778 116.237ZM245.775 113.836C244.705 113.836 243.937 113.337 243.937 112.382C243.937 111.402 244.746 110.92 245.971 110.748C246.73 110.642 247.972 110.462 248.388 110.185V111.516C248.388 112.831 247.302 113.836 245.775 113.836ZM261.216 103.455H258.855V100.449H255.376V103.455H253.661V106.068H255.376V112.602C255.36 115.061 257.034 116.278 259.558 116.172C260.456 116.139 261.093 115.959 261.444 115.845L260.897 113.256C260.726 113.288 260.358 113.37 260.031 113.37C259.337 113.37 258.855 113.109 258.855 112.145V106.068H261.216V103.455ZM269.065 116.245C272.169 116.245 274.259 114.734 274.749 112.406L271.531 112.194C271.18 113.15 270.282 113.648 269.122 113.648C267.382 113.648 266.28 112.496 266.28 110.626V110.618H274.823V109.662C274.823 105.398 272.242 103.291 268.926 103.291C265.234 103.291 262.841 105.913 262.841 109.784C262.841 113.762 265.202 116.245 269.065 116.245ZM266.28 108.461C266.353 107.032 267.439 105.888 268.983 105.888C270.494 105.888 271.54 106.967 271.548 108.461H266.28ZM18.1186 122.818V133H19.5803V125.627H19.6747L22.6776 132.985H23.8906L26.8935 125.632H26.9879V133H28.4496V122.818H26.5852L23.3438 130.733H23.2244L19.983 122.818H18.1186ZM32.786 133.169C34.0488 133.169 34.7598 132.528 35.0431 131.956H35.1028V133H36.5545V127.929C36.5545 125.707 34.8045 125.264 33.5914 125.264C32.2093 125.264 30.9366 125.821 30.4395 127.213L31.8365 127.531C32.0552 126.989 32.612 126.467 33.6113 126.467C34.5708 126.467 35.063 126.969 35.063 127.835V127.869C35.063 128.411 34.5062 128.401 33.1341 128.56C31.6873 128.729 30.2058 129.107 30.2058 130.842C30.2058 132.344 31.3343 133.169 32.786 133.169ZM33.1092 131.976C32.269 131.976 31.6625 131.598 31.6625 130.862C31.6625 130.067 32.3684 129.783 33.2285 129.669C33.7108 129.604 34.8542 129.475 35.068 129.261V130.246C35.068 131.151 34.3471 131.976 33.1092 131.976ZM39.2006 135.864C40.4286 135.864 41.2042 135.222 41.6467 134.019L44.8036 125.379L43.1978 125.364L41.2638 131.29H41.1843L39.2504 125.364H37.6594L40.4535 133.099L40.2695 133.607C39.8917 134.621 39.3597 134.705 38.5444 134.482L38.1864 135.7C38.3654 135.779 38.7532 135.864 39.2006 135.864ZM53.1261 133.154C54.9308 133.154 56.0991 132.07 56.2631 130.584H54.8164C54.6275 131.409 53.9862 131.896 53.136 131.896C51.8782 131.896 51.0678 130.847 51.0678 129.182C51.0678 127.546 51.8931 126.517 53.136 126.517C54.0806 126.517 54.6573 127.114 54.8164 127.83H56.2631C56.104 126.288 54.8462 125.264 53.1112 125.264C50.9585 125.264 49.5664 126.885 49.5664 129.217C49.5664 131.518 50.9087 133.154 53.1261 133.154ZM59.3393 128.466C59.3393 127.248 60.1099 126.552 61.1689 126.552C62.193 126.552 62.8045 127.203 62.8045 128.322V133H64.291V128.143C64.291 126.239 63.247 125.264 61.676 125.264C60.4877 125.264 59.7718 125.781 59.4139 126.607H59.3194V122.818H57.8528V133H59.3393V128.466ZM68.497 133.169C69.7598 133.169 70.4707 132.528 70.7541 131.956H70.8137V133H72.2654V127.929C72.2654 125.707 70.5154 125.264 69.3024 125.264C67.9203 125.264 66.6475 125.821 66.1504 127.213L67.5474 127.531C67.7662 126.989 68.323 126.467 69.3223 126.467C70.2818 126.467 70.774 126.969 70.774 127.835V127.869C70.774 128.411 70.2172 128.401 68.845 128.56C67.3983 128.729 65.9167 129.107 65.9167 130.842C65.9167 132.344 67.0453 133.169 68.497 133.169ZM68.8201 131.976C67.9799 131.976 67.3734 131.598 67.3734 130.862C67.3734 130.067 68.0794 129.783 68.9395 129.669C69.4217 129.604 70.5652 129.475 70.7789 129.261V130.246C70.7789 131.151 70.0581 131.976 68.8201 131.976ZM75.7319 128.466C75.7319 127.248 76.4776 126.552 77.5117 126.552C78.521 126.552 79.1325 127.213 79.1325 128.322V133H80.619V128.143C80.619 126.254 79.5799 125.264 78.0188 125.264C76.8704 125.264 76.1197 125.796 75.7667 126.607H75.6722V125.364H74.2454V133H75.7319V128.466ZM85.8143 136.023C87.7582 136.023 89.2596 135.133 89.2596 133.169V125.364H87.8029V126.602H87.6935C87.43 126.129 86.9031 125.264 85.4812 125.264C83.6367 125.264 82.2795 126.721 82.2795 129.152C82.2795 131.588 83.6665 132.886 85.4712 132.886C86.8732 132.886 87.4151 132.095 87.6836 131.608H87.7781V133.109C87.7781 134.308 86.9577 134.825 85.8292 134.825C84.5913 134.825 84.109 134.203 83.8455 133.766L82.5678 134.293C82.9705 135.227 83.9897 136.023 85.8143 136.023ZM85.7994 131.653C84.4719 131.653 83.7809 130.634 83.7809 129.132C83.7809 127.665 84.457 126.527 85.7994 126.527C87.0969 126.527 87.793 127.586 87.793 129.132C87.793 130.708 87.082 131.653 85.7994 131.653ZM94.5444 133.154C96.2099 133.154 97.3881 132.334 97.7262 131.091L96.3192 130.837C96.0508 131.558 95.4045 131.926 94.5593 131.926C93.2866 131.926 92.4315 131.101 92.3917 129.629H97.8207V129.102C97.8207 126.343 96.1701 125.264 94.44 125.264C92.3121 125.264 90.9102 126.885 90.9102 129.232C90.9102 131.603 92.2923 133.154 94.5444 133.154ZM92.3967 128.516C92.4563 127.432 93.2418 126.492 94.4499 126.492C95.6033 126.492 96.359 127.347 96.364 128.516H92.3967ZM104.115 135.864C105.343 135.864 106.118 135.222 106.561 134.019L109.718 125.379L108.112 125.364L106.178 131.29H106.098L104.164 125.364H102.574L105.368 133.099L105.184 133.607C104.806 134.621 104.274 134.705 103.458 134.482L103.1 135.7C103.279 135.779 103.667 135.864 104.115 135.864ZM114.062 133.154C116.214 133.154 117.621 131.578 117.621 129.217C117.621 126.84 116.214 125.264 114.062 125.264C111.909 125.264 110.502 126.84 110.502 129.217C110.502 131.578 111.909 133.154 114.062 133.154ZM114.067 131.906C112.66 131.906 112.003 130.678 112.003 129.212C112.003 127.75 112.66 126.507 114.067 126.507C115.464 126.507 116.12 127.75 116.12 129.212C116.12 130.678 115.464 131.906 114.067 131.906ZM124.118 129.833C124.123 131.131 123.158 131.747 122.323 131.747C121.403 131.747 120.767 131.081 120.767 130.042V125.364H119.281V130.221C119.281 132.115 120.32 133.099 121.786 133.099C122.935 133.099 123.715 132.493 124.068 131.678H124.148V133H125.609V125.364H124.118V129.833ZM127.607 133H129.093V128.337C129.093 127.337 129.864 126.616 130.918 126.616C131.226 126.616 131.574 126.671 131.693 126.706V125.284C131.544 125.264 131.251 125.249 131.062 125.249C130.167 125.249 129.401 125.756 129.123 126.577H129.044V125.364H127.607V133ZM139.901 133.154C141.706 133.154 142.874 132.07 143.039 130.584H141.592C141.403 131.409 140.762 131.896 139.911 131.896C138.654 131.896 137.843 130.847 137.843 129.182C137.843 127.546 138.669 126.517 139.911 126.517C140.856 126.517 141.433 127.114 141.592 127.83H143.039C142.879 126.288 141.622 125.264 139.887 125.264C137.734 125.264 136.342 126.885 136.342 129.217C136.342 131.518 137.684 133.154 139.901 133.154ZM147.845 133.154C149.998 133.154 151.404 131.578 151.404 129.217C151.404 126.84 149.998 125.264 147.845 125.264C145.692 125.264 144.285 126.84 144.285 129.217C144.285 131.578 145.692 133.154 147.845 133.154ZM147.85 131.906C146.443 131.906 145.787 130.678 145.787 129.212C145.787 127.75 146.443 126.507 147.85 126.507C149.247 126.507 149.903 127.75 149.903 129.212C149.903 130.678 149.247 131.906 147.85 131.906ZM155.922 133.149C157.314 133.149 157.861 132.299 158.13 131.812H158.254V133H159.706V122.818H158.219V126.602H158.13C157.861 126.129 157.354 125.264 155.932 125.264C154.088 125.264 152.731 126.721 152.731 129.197C152.731 131.668 154.068 133.149 155.922 133.149ZM156.251 131.881C154.923 131.881 154.232 130.713 154.232 129.182C154.232 127.665 154.908 126.527 156.251 126.527C157.548 126.527 158.244 127.586 158.244 129.182C158.244 130.788 157.533 131.881 156.251 131.881ZM165.119 133.154C166.784 133.154 167.962 132.334 168.3 131.091L166.893 130.837C166.625 131.558 165.979 131.926 165.134 131.926C163.861 131.926 163.006 131.101 162.966 129.629H168.395V129.102C168.395 126.343 166.744 125.264 165.014 125.264C162.886 125.264 161.484 126.885 161.484 129.232C161.484 131.603 162.866 133.154 165.119 133.154ZM162.971 128.516C163.031 127.432 163.816 126.492 165.024 126.492C166.178 126.492 166.933 127.347 166.938 128.516H162.971ZM175.972 133.169C177.234 133.169 177.945 132.528 178.229 131.956H178.288V133H179.74V127.929C179.74 125.707 177.99 125.264 176.777 125.264C175.395 125.264 174.122 125.821 173.625 127.213L175.022 127.531C175.241 126.989 175.798 126.467 176.797 126.467C177.756 126.467 178.249 126.969 178.249 127.835V127.869C178.249 128.411 177.692 128.401 176.32 128.56C174.873 128.729 173.391 129.107 173.391 130.842C173.391 132.344 174.52 133.169 175.972 133.169ZM176.295 131.976C175.455 131.976 174.848 131.598 174.848 130.862C174.848 130.067 175.554 129.783 176.414 129.669C176.896 129.604 178.04 129.475 178.254 129.261V130.246C178.254 131.151 177.533 131.976 176.295 131.976ZM185.544 133H186.996V131.812H187.12C187.389 132.299 187.936 133.149 189.328 133.149C191.177 133.149 192.52 131.668 192.52 129.197C192.52 126.721 191.157 125.264 189.313 125.264C187.896 125.264 187.384 126.129 187.12 126.602H187.031V122.818H185.544V133ZM187.001 129.182C187.001 127.586 187.697 126.527 188.995 126.527C190.342 126.527 191.018 127.665 191.018 129.182C191.018 130.713 190.322 131.881 188.995 131.881C187.717 131.881 187.001 130.788 187.001 129.182ZM194.189 133H195.675V125.364H194.189V133ZM194.939 124.185C195.452 124.185 195.879 123.788 195.879 123.3C195.879 122.813 195.452 122.411 194.939 122.411C194.422 122.411 194 122.813 194 123.3C194 123.788 194.422 124.185 194.939 124.185ZM201.24 125.364H199.674V123.534H198.187V125.364H197.069V126.557H198.187V131.066C198.182 132.453 199.241 133.124 200.414 133.099C200.887 133.094 201.205 133.005 201.379 132.94L201.11 131.712C201.011 131.732 200.827 131.777 200.588 131.777C200.106 131.777 199.674 131.618 199.674 130.758V126.557H201.24V125.364ZM203.863 133.094C204.405 133.094 204.858 132.652 204.858 132.1C204.858 131.558 204.405 131.111 203.863 131.111C203.317 131.111 202.869 131.558 202.869 132.1C202.869 132.652 203.317 133.094 203.863 133.094Z" fill="black"/>
</svg>
